<svg width="21" height="24" viewBox="0 0 21 24" fill="none" xmlns="http://www.w3.org/2000/svg">
<g clip-path="url(#clip0_97_36846)">
<path d="M19.8735 8.18824C18.2349 9.17647 17.2229 10.8706 17.2229 12.7529C17.2229 14.8706 18.5241 16.8 20.5 17.6C20.1145 18.8235 19.5361 19.9529 18.8133 20.9882C17.753 22.4471 16.6446 23.9529 15.006 23.9529C13.3675 23.9529 12.8855 23.0118 10.9578 23.0118C9.07831 23.0118 8.40361 24 6.86145 24C5.31928 24 4.25904 22.6353 3.05422 20.9412C1.46386 18.5882 0.548193 15.8588 0.5 12.9882C0.5 8.32941 3.58434 5.83529 6.66867 5.83529C8.30723 5.83529 9.65663 6.87059 10.6687 6.87059C11.6325 6.87059 13.1747 5.78824 15.006 5.78824C16.9337 5.74118 18.7651 6.63529 19.8735 8.18824ZM14.1386 3.81176C14.9578 2.87059 15.3916 1.69412 15.4398 0.470588C15.4398 0.329412 15.4398 0.141176 15.3916 0C13.994 0.141176 12.6928 0.8 11.7771 1.83529C10.9578 2.72941 10.4759 3.85882 10.4277 5.08235C10.4277 5.22353 10.4277 5.36471 10.4759 5.50588C10.5723 5.50588 10.7169 5.55294 10.8133 5.55294C12.1145 5.45882 13.3193 4.8 14.1386 3.81176Z" fill="white"/>
</g>
<defs>
<clipPath id="clip0_97_36846">
<rect width="20" height="24" fill="white" transform="translate(0.5)"/>
</clipPath>
</defs>
</svg>
